<svg width="17" height="27" viewBox="0 0 17 27" fill="none" xmlns="http://www.w3.org/2000/svg">
<path d="M8.5 27C3.81255 27 0 23.2155 0 18.5625L0 6.75C0 6.12893 0.5078 5.62507 1.13326 5.62507C1.75894 5.62507 2.26674 6.12893 2.26674 6.75L2.26674 18.5625C2.26674 21.9746 5.06265 24.7499 8.5 24.7499C11.9374 24.7499 14.7333 21.9746 14.7333 18.5625L14.7333 6.18743C14.7333 4.01626 12.954 2.25007 10.7667 2.25007C8.57927 2.25007 6.8 4.01626 6.8 6.18743L6.8 17.4376C6.8 18.3678 7.56263 19.1251 8.5 19.1251C9.43737 19.1251 10.2 18.3678 10.2 17.4376V6.75C10.2 6.12893 10.7078 5.62507 11.3333 5.62507C11.9589 5.62507 12.4667 6.12893 12.4667 6.75V17.4376C12.4667 19.6087 10.6873 21.3749 8.5 21.3749C6.31274 21.3749 4.53326 19.6087 4.53326 17.4376L4.53326 6.18743C4.53326 2.77535 7.32917 0 10.7667 0C14.2041 0 17 2.77535 17 6.18743L17 18.5625C17 23.2155 13.1875 27 8.5 27Z" fill="#D7D7D7"/>
</svg>
