<svg width="17" height="27" viewBox="0 0 17 27" fill="none" xmlns="http://www.w3.org/2000/svg">
<path d="M8.20539 20.2192C10.8313 20.2192 12.9675 18.083 12.9675 15.4574V4.76184C12.9675 2.13596 10.8313 0 8.20539 0C5.5795 0 3.44354 2.13596 3.44354 4.76184V15.4577C3.44354 18.0833 5.5795 20.2192 8.20539 20.2192Z" fill="#D9D9D9"/>
<path d="M15.859 12.6108H14.9109C14.6064 12.6108 14.3592 12.8579 14.3592 13.1625V15.1015C14.3592 18.4945 11.5984 21.2553 8.20509 21.2553C4.81178 21.2553 2.05155 18.4945 2.05155 15.1015V13.1625C2.05155 12.8579 1.80438 12.6108 1.49984 12.6108H0.551714C0.247168 12.6108 0 12.8579 0 13.1625V15.1015C0 19.1585 3.15387 22.7336 7.17946 23.2409V24.6147H2.94505C2.6405 24.6147 2.39334 24.8619 2.39334 25.1664V26.1143C2.39334 26.4188 2.6405 26.666 2.94505 26.666H13.4657C13.7702 26.666 14.0174 26.4188 14.0174 26.1143V25.1664C14.0174 24.8619 13.7702 24.6147 13.4657 24.6147H9.23101V23.2409C13.2569 22.7339 16.4105 19.1585 16.4105 15.1015V13.1625C16.4107 12.8577 16.1636 12.6108 15.859 12.6108Z" fill="#D9D9D9"/>
</svg>
