<svg width="20" height="20" viewBox="0 0 20 20" fill="none" xmlns="http://www.w3.org/2000/svg">
<path fill-rule="evenodd" clip-rule="evenodd" d="M1.11111 7.77782C0.497467 7.77782 0 7.28032 0 6.66667V3.33333C0 1.49239 1.49239 0 3.33333 0H6.66667C7.28032 0 7.77778 0.497467 7.77778 1.11111C7.77778 1.72477 7.28032 2.22222 6.66667 2.22222H3.33333C2.71969 2.22222 2.22222 2.71969 2.22222 3.33333V6.66667C2.22222 7.28032 1.72476 7.77782 1.11111 7.77782Z" fill="white"/>
<path fill-rule="evenodd" clip-rule="evenodd" d="M18.8889 12.2223C19.5025 12.2223 20 12.7197 20 13.3334V16.6667C20 18.5076 18.5077 20.0001 16.6667 20.0001H13.3333C12.7197 20.0001 12.2222 19.5025 12.2222 18.889C12.2222 18.2753 12.7197 17.7778 13.3333 17.7778H16.6667C17.2803 17.7778 17.7778 17.2803 17.7778 16.6667V13.3334C17.7778 12.7197 18.2752 12.2223 18.8889 12.2223Z" fill="white"/>
<path fill-rule="evenodd" clip-rule="evenodd" d="M12.2222 1.11111C12.2222 0.497467 12.7197 0 13.3333 0H16.6667C18.5077 0 20 1.49239 20 3.33333V6.66667C20 7.28032 19.5025 7.77782 18.8889 7.77782C18.2752 7.77782 17.7778 7.28032 17.7778 6.66667V3.33333C17.7778 2.71969 17.2803 2.22222 16.6667 2.22222H13.3333C12.7197 2.22222 12.2222 1.72477 12.2222 1.11111Z" fill="white"/>
<path fill-rule="evenodd" clip-rule="evenodd" d="M7.77778 18.889C7.77778 19.5025 7.28031 20.0001 6.66667 20.0001H3.33333C1.49239 20.0001 0 18.5076 0 16.6667V13.3334C0 12.7197 0.497467 12.2223 1.11111 12.2223C1.72477 12.2223 2.22222 12.7197 2.22222 13.3334V16.6667C2.22222 17.2803 2.71969 17.7778 3.33333 17.7778H6.66667C7.28031 17.7778 7.77778 18.2753 7.77778 18.889Z" fill="white"/>
</svg>
