<svg width="36" height="36" viewBox="0 0 36 36" fill="none" xmlns="http://www.w3.org/2000/svg">
<circle cx="18" cy="18" r="18" fill="url(#paint0_linear_262_71)"/>
<path fill-rule="evenodd" clip-rule="evenodd" d="M22.0759 10.0208C21.2403 10.0208 20.4483 9.64863 19.6574 9.37903C19.2411 9.23713 18.7725 9.15741 18.2769 9.15741C17.7528 9.15741 17.2588 9.2466 16.8249 9.40422C16.0854 9.67291 15.3407 10.0208 14.5538 10.0208V10.0208C12.0495 10.0208 9.7902 11.0698 8.19131 12.7524C6.61843 14.4076 4.73685 16.502 4.73685 18.7853V18.7853C4.73685 18.8566 4.7385 18.9273 4.74174 18.9974C4.84085 21.1375 6.59007 23.0623 8.02118 24.6566C8.14806 24.798 8.27945 24.9352 8.41513 25.068C10.7145 27.319 14.2628 31.1512 17.2695 30.0049V30.0049L24.6774 27.1804C26.1712 26.7173 27.4943 25.8661 28.5286 24.7445C30.0505 23.0943 31.8425 21.0301 31.8425 18.7853V18.7853V18.7853C31.8425 16.5344 30.0351 14.4675 28.5018 12.8197C26.8995 11.0978 24.6135 10.0208 22.0759 10.0208V10.0208Z" fill="#81B5A1"/>
<rect x="8.45984" y="12.4253" width="19.6876" height="12.749" rx="6.37449" fill="#293E40"/>
<circle cx="14.2183" cy="18.8037" r="1.66855" fill="white"/>
<circle cx="22.3759" cy="18.8038" r="1.66855" fill="white"/>
<rect x="17.9652" y="7.29138" width="0.676937" height="2.62313" fill="#81B5A1"/>
<ellipse cx="18.3037" cy="6.85462" rx="1.15643" ry="1.17054" fill="#81B5A1"/>
<defs>
<linearGradient id="paint0_linear_262_71" x1="2.84211" y1="3.78947" x2="32.2105" y2="45.4737" gradientUnits="userSpaceOnUse">
<stop stop-color="#293E40"/>
<stop offset="1" stop-color="white" stop-opacity="0.68"/>
</linearGradient>
</defs>
</svg>
