<svg width="18" height="18" viewBox="0 0 18 18" fill="none" xmlns="http://www.w3.org/2000/svg">
<path d="M1.70954 17.9902C1.2674 18.0162 0.832566 17.8678 0.496738 17.5763C-0.165579 16.9035 -0.165579 15.817 0.496738 15.1443L14.9993 0.500583C15.6882 -0.150285 16.7691 -0.114104 17.4137 0.581466C17.9966 1.21047 18.0306 2.17725 17.4933 2.84635L2.90525 17.5763C2.57375 17.8636 2.14589 18.0117 1.70954 17.9902Z" fill="white"/>
<path d="M16.161 17.9907C15.7129 17.9888 15.2834 17.8092 14.9652 17.4905L0.462594 2.84675C-0.151009 2.12323 -0.0675861 1.03438 0.648959 0.414752C1.28849 -0.138251 2.23168 -0.138251 2.87116 0.414752L17.4592 15.0585C18.1479 15.7095 18.1835 16.801 17.5387 17.4964C17.5131 17.5241 17.4866 17.5508 17.4592 17.5767C17.102 17.8904 16.6319 18.0403 16.161 17.9907Z" fill="white"/>
</svg>
