<svg width="38" height="38" viewBox="0 0 38 38" fill="none" xmlns="http://www.w3.org/2000/svg">
<circle cx="19" cy="19" r="19" fill="url(#paint0_linear_262_35)"/>
<path fill-rule="evenodd" clip-rule="evenodd" d="M23.3024 10.5781C22.4206 10.5781 21.5848 10.1853 20.7502 9.90063C20.3106 9.75071 19.8157 9.66647 19.2924 9.66647C18.7388 9.66647 18.2171 9.76072 17.759 9.92725C16.9787 10.2109 16.1927 10.5781 15.3625 10.5781V10.5781C12.7192 10.5781 10.3344 11.6853 8.64674 13.4611C6.98634 15.2082 5 17.4191 5 19.8293V19.8293C5 19.9043 5.00173 19.9787 5.00513 20.0524C5.10942 22.3119 6.95617 24.3443 8.46719 26.0274C8.60123 26.1767 8.74005 26.3216 8.8834 26.462C11.3106 28.8376 15.0557 32.8816 18.2291 31.6716V31.6716L26.0387 28.694C27.6196 28.2059 29.0198 27.306 30.1139 26.1195C31.7201 24.3777 33.6115 22.1987 33.6115 19.8293V19.8293V19.8293C33.6115 17.4534 31.7037 15.2716 30.085 13.5323C28.3938 11.7149 25.9808 10.5781 23.3024 10.5781V10.5781Z" fill="#81B5A1"/>
<rect x="8.92999" y="13.1157" width="20.7813" height="13.4573" rx="6.72863" fill="#293E40"/>
<circle cx="15.0083" cy="19.8489" r="1.76125" fill="white"/>
<circle cx="23.6189" cy="19.8487" r="1.76125" fill="white"/>
<rect x="18.9634" y="7.69702" width="0.714544" height="2.76886" fill="#81B5A1"/>
<ellipse cx="19.3207" cy="7.23557" rx="1.22068" ry="1.23557" fill="#81B5A1"/>
<defs>
<linearGradient id="paint0_linear_262_35" x1="3" y1="4" x2="34" y2="48" gradientUnits="userSpaceOnUse">
<stop stop-color="white"/>
<stop offset="1" stop-color="white" stop-opacity="0.68"/>
</linearGradient>
</defs>
</svg>
