<svg width="21" height="21" viewBox="0 0 21 21" fill="none" xmlns="http://www.w3.org/2000/svg">
<path d="M10.5 0C4.71028 0 0 4.71028 0 10.5C0 16.2897 4.71028 21 10.5 21C16.2897 21 21 16.2897 21 10.5C21 4.71028 16.2897 0 10.5 0ZM10.5 19.6875C5.434 19.6875 1.3125 15.566 1.3125 10.5C1.3125 5.434 5.434 1.3125 10.5 1.3125C15.566 1.3125 19.6875 5.434 19.6875 10.5C19.6875 15.566 15.566 19.6875 10.5 19.6875ZM16.0312 13.6992C14.8839 15.6862 12.8162 16.8725 10.5002 16.8726C8.18405 16.8726 6.11625 15.6863 4.96884 13.6992C4.78759 13.3854 4.89509 12.984 5.20894 12.8028C5.52288 12.6215 5.92421 12.7291 6.10538 13.0429C7.01556 14.6191 8.65848 15.5601 10.5001 15.5601C12.3417 15.56 13.9845 14.619 14.8946 13.0429C15.0758 12.729 15.4772 12.6215 15.791 12.8027C16.1049 12.984 16.2124 13.3853 16.0312 13.6992ZM4.86765 7.91368C4.86765 7.18967 5.45668 6.6006 6.18073 6.6006C6.90478 6.6006 7.4938 7.18963 7.4938 7.91368C7.4938 8.63773 6.90478 9.22675 6.18073 9.22675C5.45668 9.22675 4.86765 8.63773 4.86765 7.91368ZM16.1324 7.91368C16.1324 8.63769 15.5434 9.22675 14.8193 9.22675C14.0953 9.22675 13.5062 8.63773 13.5062 7.91368C13.5062 7.18963 14.0953 6.6006 14.8193 6.6006C15.5433 6.60064 16.1324 7.18967 16.1324 7.91368Z" fill="#F5F5F5"/>
</svg>
